<svg width="17" height="16" viewBox="0 0 17 16" fill="none" xmlns="http://www.w3.org/2000/svg">
<g id="icon" clip-path="url(#clip0_860_4504)">
<g id="Clip path group">
<mask id="mask0_860_4504" style="mask-type:luminance" maskUnits="userSpaceOnUse" x="0" y="0" width="17" height="16">
<g id="b">
<path id="Vector" d="M16.2045 6.54545H8.75V9.63636H13.0409C12.6409 11.6 10.9682 12.7273 8.75 12.7273C6.13182 12.7273 4.02273 10.6182 4.02273 8C4.02273 5.38182 6.13182 3.27273 8.75 3.27273C9.87727 3.27273 10.8955 3.67273 11.6955 4.32727L14.0227 2C12.6045 0.763636 10.7864 0 8.75 0C4.31364 0 0.75 3.56364 0.75 8C0.75 12.4364 4.31364 16 8.75 16C12.75 16 16.3864 13.0909 16.3864 8C16.3864 7.52727 16.3136 7.01818 16.2045 6.54545Z" fill="white"/>
</g>
</mask>
<g mask="url(#mask0_860_4504)">
<path id="Vector_2" d="M0.0227051 12.7273V3.27271L6.20452 7.99998L0.0227051 12.7273Z" fill="white"/>
</g>
</g>
<g id="Clip path group_2">
<mask id="mask1_860_4504" style="mask-type:luminance" maskUnits="userSpaceOnUse" x="0" y="0" width="17" height="16">
<g id="b_2">
<path id="Vector_3" d="M16.2045 6.54545H8.75V9.63636H13.0409C12.6409 11.6 10.9682 12.7273 8.75 12.7273C6.13182 12.7273 4.02273 10.6182 4.02273 8C4.02273 5.38182 6.13182 3.27273 8.75 3.27273C9.87727 3.27273 10.8955 3.67273 11.6955 4.32727L14.0227 2C12.6045 0.763636 10.7864 0 8.75 0C4.31364 0 0.75 3.56364 0.75 8C0.75 12.4364 4.31364 16 8.75 16C12.75 16 16.3864 13.0909 16.3864 8C16.3864 7.52727 16.3136 7.01818 16.2045 6.54545Z" fill="white"/>
</g>
</mask>
<g mask="url(#mask1_860_4504)">
<path id="Vector_4" d="M0.0227051 3.27271L6.20452 7.99998L8.74998 5.7818L17.4773 4.36361V-0.727295H0.0227051V3.27271Z" fill="white"/>
</g>
</g>
<g id="Clip path group_3">
<mask id="mask2_860_4504" style="mask-type:luminance" maskUnits="userSpaceOnUse" x="0" y="0" width="17" height="16">
<g id="b_3">
<path id="Vector_5" d="M16.2045 6.54545H8.75V9.63636H13.0409C12.6409 11.6 10.9682 12.7273 8.75 12.7273C6.13182 12.7273 4.02273 10.6182 4.02273 8C4.02273 5.38182 6.13182 3.27273 8.75 3.27273C9.87727 3.27273 10.8955 3.67273 11.6955 4.32727L14.0227 2C12.6045 0.763636 10.7864 0 8.75 0C4.31364 0 0.75 3.56364 0.75 8C0.75 12.4364 4.31364 16 8.75 16C12.75 16 16.3864 13.0909 16.3864 8C16.3864 7.52727 16.3136 7.01818 16.2045 6.54545Z" fill="white"/>
</g>
</mask>
<g mask="url(#mask2_860_4504)">
<path id="Vector_6" d="M0.0227051 12.7273L10.9318 4.36361L13.8045 4.72725L17.4773 -0.727295V16.7273H0.0227051V12.7273Z" fill="white"/>
</g>
</g>
<g id="Clip path group_4">
<mask id="mask3_860_4504" style="mask-type:luminance" maskUnits="userSpaceOnUse" x="0" y="0" width="17" height="16">
<g id="b_4">
<path id="Vector_7" d="M16.2045 6.54545H8.75V9.63636H13.0409C12.6409 11.6 10.9682 12.7273 8.75 12.7273C6.13182 12.7273 4.02273 10.6182 4.02273 8C4.02273 5.38182 6.13182 3.27273 8.75 3.27273C9.87727 3.27273 10.8955 3.67273 11.6955 4.32727L14.0227 2C12.6045 0.763636 10.7864 0 8.75 0C4.31364 0 0.75 3.56364 0.75 8C0.75 12.4364 4.31364 16 8.75 16C12.75 16 16.3864 13.0909 16.3864 8C16.3864 7.52727 16.3136 7.01818 16.2045 6.54545Z" fill="white"/>
</g>
</mask>
<g mask="url(#mask3_860_4504)">
<path id="Vector_8" d="M17.4773 16.7273L6.20455 7.99998L4.75 6.90907L17.4773 3.27271V16.7273Z" fill="white"/>
</g>
</g>
</g>
<defs>
<clipPath id="clip0_860_4504">
<rect width="15.6364" height="16" fill="white" transform="translate(0.75)"/>
</clipPath>
</defs>
</svg>
