<svg width="21" height="20" viewBox="0 0 21 20" fill="none" xmlns="http://www.w3.org/2000/svg">
<g id="linkedin">
<path id="Vector" d="M5.83214 18H2.51429V7.31786H5.83214V18ZM4.17143 5.86071C3.11071 5.86071 2.25 4.98214 2.25 3.92143C2.25 3.41183 2.45244 2.92311 2.81277 2.56277C3.17311 2.20244 3.66183 2 4.17143 2C4.68102 2 5.16975 2.20244 5.53008 2.56277C5.89042 2.92311 6.09286 3.41183 6.09286 3.92143C6.09286 4.98214 5.23214 5.86071 4.17143 5.86071ZM18.2464 18H14.9357V12.8C14.9357 11.5607 14.9107 9.97143 13.2107 9.97143C11.4857 9.97143 11.2214 11.3179 11.2214 12.7107V18H7.90714V7.31786H11.0893V8.775H11.1357C11.5786 7.93571 12.6607 7.05 14.275 7.05C17.6321 7.05 18.25 9.26072 18.25 12.1321V18H18.2464Z" fill="white"/>
</g>
</svg>
