<svg width="21" height="20" viewBox="0 0 21 20" fill="none" xmlns="http://www.w3.org/2000/svg">
<g id="github">
<path id="Vector" d="M8.23875 14.8832C8.23875 14.9493 8.16265 15.0023 8.06671 15.0023C7.95753 15.0122 7.88143 14.9593 7.88143 14.8832C7.88143 14.817 7.95753 14.7641 8.05347 14.7641C8.15273 14.7541 8.23875 14.8071 8.23875 14.8832ZM7.20982 14.7343C7.18666 14.8005 7.25283 14.8766 7.35208 14.8964C7.4381 14.9295 7.53735 14.8964 7.5572 14.8302C7.57705 14.7641 7.51419 14.688 7.41494 14.6582C7.32892 14.635 7.23297 14.6681 7.20982 14.7343ZM8.67216 14.6781C8.57621 14.7012 8.51004 14.7641 8.51997 14.8402C8.52989 14.9063 8.61591 14.9493 8.71517 14.9262C8.81111 14.903 8.87728 14.8402 8.86736 14.774C8.85743 14.7111 8.7681 14.6681 8.67216 14.6781ZM10.8491 2C6.26028 2 2.75 5.48382 2.75 10.0727C2.75 13.7418 5.05931 16.8815 8.35785 17.9865C8.78134 18.0626 8.93022 17.8012 8.93022 17.5862C8.93022 17.3811 8.92029 16.2496 8.92029 15.5548C8.92029 15.5548 6.60437 16.0511 6.11802 14.5689C6.11802 14.5689 5.74085 13.6061 5.19827 13.358C5.19827 13.358 4.44063 12.8385 5.2512 12.8485C5.2512 12.8485 6.07501 12.9146 6.52827 13.7021C7.25282 14.9791 8.46703 14.6119 8.94014 14.3935C9.01624 13.8642 9.23129 13.4969 9.4695 13.2786C7.62006 13.0734 5.75409 12.8055 5.75409 9.62271C5.75409 8.71288 6.00553 8.25631 6.53489 7.67402C6.44887 7.45897 6.16765 6.5723 6.62091 5.42757C7.31238 5.21252 8.90375 6.32086 8.90375 6.32086C9.56544 6.13559 10.2768 6.03964 10.9815 6.03964C11.6862 6.03964 12.3975 6.13559 13.0592 6.32086C13.0592 6.32086 14.6506 5.20921 15.342 5.42757C15.7953 6.57561 15.5141 7.45897 15.428 7.67402C15.9574 8.25962 16.2816 8.71619 16.2816 9.62271C16.2816 12.8154 14.3329 13.0701 12.4835 13.2786C12.7879 13.5399 13.046 14.0362 13.046 14.8137C13.046 15.9287 13.036 17.3083 13.036 17.5796C13.036 17.7946 13.1882 18.056 13.6084 17.9799C16.9169 16.8815 19.16 13.7418 19.16 10.0727C19.16 5.48382 15.438 2 10.8491 2ZM5.96583 13.4109C5.92282 13.444 5.93275 13.5201 5.98899 13.5829C6.04193 13.6359 6.11802 13.659 6.16103 13.616C6.20404 13.5829 6.19412 13.5069 6.13787 13.444C6.08494 13.3911 6.00884 13.3679 5.96583 13.4109ZM5.60852 13.1429C5.58536 13.1859 5.61844 13.2389 5.68461 13.272C5.73755 13.305 5.80372 13.2951 5.82688 13.2488C5.85003 13.2058 5.81695 13.1528 5.75078 13.1198C5.68461 13.0999 5.63168 13.1098 5.60852 13.1429ZM6.68046 14.3207C6.62752 14.3637 6.64738 14.463 6.72347 14.5259C6.79956 14.602 6.89551 14.6119 6.93852 14.5589C6.98153 14.5159 6.96168 14.4167 6.89551 14.3538C6.82272 14.2777 6.72347 14.2678 6.68046 14.3207ZM6.30329 13.8344C6.25036 13.8675 6.25036 13.9535 6.30329 14.0296C6.35623 14.1057 6.44556 14.1388 6.48857 14.1057C6.5415 14.0627 6.5415 13.9767 6.48857 13.9006C6.44225 13.8245 6.35623 13.7914 6.30329 13.8344Z" fill="white"/>
</g>
</svg>
