<svg width="146" height="146" viewBox="0 0 146 146" fill="none" xmlns="http://www.w3.org/2000/svg">
<circle cx="73" cy="73" r="73" fill="url(#paint0_linear_705_2688)"/>
<path fill-rule="evenodd" clip-rule="evenodd" d="M54.583 47.6667C53.8095 47.6667 53.0676 47.974 52.5206 48.5209C51.9736 49.0679 51.6663 49.8098 51.6663 50.5833V91.4167C51.6663 92.1902 51.9736 92.9321 52.5206 93.4791C53.0676 94.0261 53.8095 94.3334 54.583 94.3334H66.2497C67.8605 94.3334 69.1663 95.6392 69.1663 97.25C69.1663 98.8608 67.8605 100.167 66.2497 100.167H54.583C52.2624 100.167 50.0368 99.2448 48.3958 97.6039C46.7549 95.9629 45.833 93.7373 45.833 91.4167V50.5833C45.833 48.2627 46.7549 46.0371 48.3958 44.3962C50.0368 42.7552 52.2624 41.8333 54.583 41.8333H66.2497C67.8605 41.8333 69.1663 43.1392 69.1663 44.75C69.1663 46.3608 67.8605 47.6667 66.2497 47.6667H54.583Z" fill="#FF5252"/>
<path fill-rule="evenodd" clip-rule="evenodd" d="M84.6043 54.3543C85.7433 53.2152 87.59 53.2152 88.7291 54.3543L103.312 68.9376C104.451 70.0766 104.451 71.9234 103.312 73.0624L88.7291 87.6457C87.59 88.7848 85.7433 88.7848 84.6043 87.6457C83.4652 86.5067 83.4652 84.66 84.6043 83.5209L97.1252 71L84.6043 58.4791C83.4652 57.34 83.4652 55.4933 84.6043 54.3543Z" fill="#FF5252"/>
<path fill-rule="evenodd" clip-rule="evenodd" d="M63.333 71C63.333 69.3892 64.6388 68.0833 66.2497 68.0833H101.25C102.861 68.0833 104.166 69.3892 104.166 71C104.166 72.6108 102.861 73.9167 101.25 73.9167H66.2497C64.6388 73.9167 63.333 72.6108 63.333 71Z" fill="#FF5252"/>
<defs>
<linearGradient id="paint0_linear_705_2688" x1="73" y1="0" x2="73" y2="146" gradientUnits="userSpaceOnUse">
<stop stop-color="#EB2828" stop-opacity="0.11"/>
<stop offset="1" stop-color="#EB2828" stop-opacity="0"/>
</linearGradient>
</defs>
</svg>
