<svg width="20" height="21" viewBox="0 0 20 21" fill="none" xmlns="http://www.w3.org/2000/svg">
<path d="M12.5 3.83333H17.5C18.4205 3.83333 19.1667 4.57952 19.1667 5.49999V15.5C19.1667 16.4205 18.4205 17.1667 17.5 17.1667H2.5C1.57952 17.1667 0.833332 16.4205 0.833332 15.5V5.49999C0.833332 4.57952 1.57952 3.83333 2.5 3.83333H7.5" stroke="currentColor" stroke-linecap="round" stroke-linejoin="round"/>
<path d="M0.833332 8.83333H7.5M19.1667 8.83333H12.5" stroke="currentColor" stroke-linecap="round" stroke-linejoin="round"/>
<path d="M10.5 1.75C10.5 1.47386 10.2761 1.25 10 1.25C9.72386 1.25 9.5 1.47386 9.5 1.75H10.5ZM9.64645 15.8536C9.84171 16.0488 10.1583 16.0488 10.3536 15.8536L13.5355 12.6716C13.7308 12.4763 13.7308 12.1597 13.5355 11.9645C13.3403 11.7692 13.0237 11.7692 12.8284 11.9645L10 14.7929L7.17157 11.9645C6.97631 11.7692 6.65973 11.7692 6.46447 11.9645C6.2692 12.1597 6.2692 12.4763 6.46447 12.6716L9.64645 15.8536ZM9.5 1.75V15.5H10.5V1.75H9.5Z" fill="currentColor"/>
</svg>
