<svg width="22" height="22" viewBox="0 0 22 22" fill="none" xmlns="http://www.w3.org/2000/svg">
<g clip-path="url(#clip0_449_830)">
<path d="M12.0665 12.2802C11.6602 11.9461 11.1371 11.7469 10.5771 11.7098C10.5547 11.7056 10.5317 11.7033 10.5082 11.7033C10.0483 11.7033 9.61895 11.5585 9.29934 11.2957C9.00085 11.0502 8.83647 10.7302 8.83647 10.3946C8.83647 10.059 9.00085 9.73898 9.29934 9.49353C9.61803 9.23145 10.0458 9.08682 10.5043 9.086C10.5289 9.09112 10.5544 9.09385 10.5805 9.09385C10.599 9.09385 10.6171 9.09245 10.6348 9.08987C11.1976 9.12351 11.7048 9.37957 11.9791 9.77525C12.0962 9.94407 12.328 9.98604 12.4968 9.86898C12.6656 9.75192 12.7076 9.52016 12.5905 9.35133C12.3787 9.0458 12.0753 8.79088 11.7132 8.61411C11.4773 8.49898 11.2197 8.41919 10.9525 8.37702V7.82641C10.9525 7.62097 10.786 7.45443 10.5805 7.45443C10.3751 7.45443 10.2086 7.62097 10.2086 7.82641V8.35758C9.6893 8.41176 9.20695 8.6063 8.8268 8.91891C8.59972 9.10564 8.42055 9.32481 8.29429 9.5703C8.16039 9.83063 8.09251 10.108 8.09251 10.3946C8.09251 10.6813 8.1604 10.9586 8.29429 11.2189C8.42055 11.4644 8.59972 11.6836 8.8268 11.8703C9.23307 12.2044 9.75611 12.4036 10.3162 12.4408C10.3385 12.445 10.3615 12.4473 10.385 12.4473C10.845 12.4473 11.2743 12.592 11.5939 12.8549C11.8924 13.1003 12.0568 13.4203 12.0568 13.7559C12.0568 14.0916 11.8924 14.4116 11.5939 14.657C11.2743 14.9199 10.845 15.0646 10.385 15.0646C9.77257 15.0646 9.20893 14.8005 8.91406 14.3753C8.79699 14.2065 8.56523 14.1646 8.39641 14.2816C8.2276 14.3987 8.18567 14.6305 8.30274 14.7993C8.5146 15.1048 8.81798 15.3597 9.18007 15.5364C9.49395 15.6897 9.84638 15.7805 10.2086 15.8029V16.3189C10.2086 16.5243 10.3751 16.6908 10.5805 16.6908C10.786 16.6908 10.9525 16.5243 10.9525 16.3189V15.7519C11.369 15.6673 11.7526 15.4898 12.0664 15.2317C12.2935 15.0449 12.4727 14.8258 12.599 14.5803C12.7329 14.32 12.8007 14.0426 12.8007 13.756C12.8007 13.4693 12.7329 13.192 12.599 12.9316C12.4727 12.6861 12.2935 12.467 12.0665 12.2802ZM20.8919 8.67168H20.3435C20.0954 8.14104 19.7793 7.62994 19.4019 7.14936C18.979 6.61088 18.4785 6.10986 17.9143 5.6602C17.6795 5.47314 17.511 5.21577 17.4396 4.93553C17.1061 3.62522 17.6188 2.8972 17.9581 2.41545C18.0687 2.25836 18.1642 2.12269 18.2171 1.98488C18.3141 1.73233 18.2518 1.48687 18.0505 1.32826C17.7889 1.1221 17.4276 1.22798 17.1421 1.34327C16.8746 1.45127 16.5434 1.6275 16.1578 1.86707C15.4519 2.30562 14.648 2.90512 14.0597 3.43163C13.9156 3.56068 13.721 3.61152 13.5391 3.5676C12.5562 3.3303 11.5328 3.21 10.4975 3.21C8.8743 3.21 7.38218 3.43854 6.06262 3.8893C4.82018 4.31371 3.73182 4.9336 2.82776 5.73172C1.97163 6.48753 1.29238 7.3914 0.8089 8.41822C0.344986 9.40347 0.0730883 10.4749 0.000774259 11.6027C0.000268259 11.6107 1.52588e-05 11.6186 1.52588e-05 11.6265C1.52588e-05 13.4245 0.465414 14.8937 1.42279 16.1179C2.17085 17.0745 3.2205 17.8853 4.71481 18.6584V20.025C4.71481 20.136 4.75245 20.3464 5.00451 20.509C5.11355 20.5794 5.25282 20.6352 5.43029 20.6797C5.7109 20.7501 6.08212 20.7889 6.47557 20.7889C6.86902 20.7889 7.24025 20.7501 7.52086 20.6797C7.69831 20.6352 7.83758 20.5794 7.94664 20.509C8.19869 20.3464 8.23633 20.136 8.23633 20.025V19.8475C8.97698 19.9774 9.73554 20.0431 10.4975 20.0431C11.2595 20.0431 12.0181 19.9774 12.7588 19.8475V20.025C12.7588 20.136 12.7964 20.3464 13.0485 20.509C13.1575 20.5794 13.2968 20.6352 13.4742 20.6797C13.7548 20.7501 14.126 20.7889 14.5195 20.7889C14.9129 20.7889 15.2842 20.7501 15.5648 20.6797C15.7422 20.6352 15.8815 20.5794 15.9905 20.509C16.2426 20.3464 16.2802 20.136 16.2802 20.025V18.6574C17.2049 18.1695 18.0236 17.5711 18.7164 16.8765C19.4099 16.1811 19.9565 15.41 20.3436 14.5813H20.8919C21.5029 14.5813 22 14.0842 22 13.4732V9.77981C22 9.16878 21.5029 8.67168 20.8919 8.67168ZM21.256 13.4732C21.256 13.674 21.0927 13.8374 20.8919 13.8374H20.1024C19.9535 13.8374 19.8188 13.9263 19.7603 14.0633C19.0531 15.7197 17.6258 17.1526 15.7414 18.098C15.6157 18.1611 15.5363 18.2898 15.5363 18.4305V19.9101C15.4012 19.9661 15.0609 20.0449 14.5195 20.0449C13.9781 20.0449 13.6377 19.9661 13.5027 19.9101V19.3965C13.5027 19.2843 13.452 19.178 13.3648 19.1074C13.2776 19.0368 13.1631 19.0093 13.0533 19.0327C12.2224 19.2095 11.3625 19.2991 10.4975 19.2991C9.63256 19.2991 8.77268 19.2095 7.94176 19.0327C7.83197 19.0093 7.71752 19.0368 7.63029 19.1074C7.54306 19.178 7.49237 19.2843 7.49237 19.3965V19.9101C7.35734 19.9661 7.017 20.0449 6.47557 20.0449C5.93413 20.0449 5.5938 19.9661 5.45878 19.9101V18.4305C5.45878 18.2898 5.37938 18.1611 5.2536 18.098C2.91397 16.9242 0.748741 15.3289 0.743978 11.6385C0.976771 8.09069 3.66956 3.95396 10.4975 3.95396C11.4741 3.95396 12.4387 4.06729 13.3645 4.29079C13.7841 4.39209 14.2295 4.27814 14.5559 3.98598C15.0572 3.53736 15.7566 3.0086 16.3813 2.60606C16.7044 2.39789 17.0007 2.22778 17.2381 2.11416C17.2497 2.10861 17.2611 2.10324 17.2721 2.09807C16.8965 2.64089 16.3288 3.58713 16.7187 5.11906C16.8298 5.55561 17.0898 5.95443 17.4507 6.24204C18.4929 7.0726 19.2916 8.09191 19.7604 9.18976C19.8189 9.32678 19.9535 9.41567 20.1025 9.41567H20.8919C21.0927 9.41567 21.2561 9.57903 21.2561 9.77983V13.4732H21.256ZM9.84488 5.32294C10.0506 5.32555 10.2188 5.16124 10.2215 4.95588C10.2242 4.75046 10.0599 4.58174 9.85449 4.57904C9.81723 4.57855 8.92859 4.5698 7.7664 4.81046C7.08163 4.95226 6.44257 5.15197 5.86698 5.40403C5.13837 5.72311 4.50915 6.12775 3.99678 6.6067C3.84669 6.74699 3.83877 6.98238 3.97906 7.13245C4.05231 7.21081 4.15147 7.25042 4.25088 7.25042C4.34187 7.25042 4.43309 7.21723 4.50481 7.15017C5.52793 6.19378 6.916 5.74801 7.90028 5.54248C8.98364 5.31626 9.83212 5.32288 9.84488 5.32294Z" fill="currentColor"/>
</g>
<defs>
<clipPath id="clip0_449_830">
<rect width="22" height="22" fill="currentColor"/>
</clipPath>
</defs>
</svg>
