<svg width="20" height="21" viewBox="0 0 20 21" fill="none" xmlns="http://www.w3.org/2000/svg">
<path d="M14.5 3.83333H17.5C18.4205 3.83333 19.1667 4.57952 19.1667 5.49999V15.5C19.1667 16.4205 18.4205 17.1667 17.5 17.1667H2.5C1.57953 17.1667 0.833336 16.4205 0.833336 15.5V5.49999C0.833336 4.57952 1.57953 3.83333 2.5 3.83333H5.50002" stroke="currentColor" stroke-linecap="round" stroke-linejoin="round"/>
<path d="M0.833336 8.83333H7.5M19.1667 8.83333H12.5" stroke="currentColor" stroke-linecap="round" stroke-linejoin="round"/>
<path d="M9.5 15.5C9.5 15.7761 9.72386 16 10 16C10.2761 16 10.5 15.7761 10.5 15.5H9.5ZM10.3536 1.39645C10.1583 1.20119 9.84171 1.20119 9.64645 1.39645L6.46447 4.57843C6.2692 4.77369 6.2692 5.09027 6.46447 5.28553C6.65973 5.4808 6.97631 5.4808 7.17157 5.28553L10 2.45711L12.8284 5.28553C13.0237 5.4808 13.3403 5.4808 13.5355 5.28553C13.7308 5.09027 13.7308 4.77369 13.5355 4.57843L10.3536 1.39645ZM10.5 15.5L10.5 1.75H9.5L9.5 15.5H10.5Z" fill="currentColor"/>
</svg>
