<svg xmlns="http://www.w3.org/2000/svg" viewBox="0 0 1024 1024" width="1024" height="1024">

<g transform="translate(-155.1390,43.3868) scale(2.308439)">
<path d="M 287,32 L286,33 L285,33 L284,33 L283,33 L282,33 L281,33 L280,33 L279,33 L278,33 L277,33 L276,33 L275,33 L274,33 L273,33 L272,33 L271,33 L270,33 L269,34 L268,34 L267,34 L266,34 L265,34 L264,34 L263,34 L262,35 L261,35 L260,35 L259,35 L258,35 L257,35 L256,36 L255,36 L254,36 L253,36 L252,37 L251,37 L250,37 L249,37 L248,38 L247,38 L246,38 L245,38 L244,39 L243,39 L242,39 L241,39 L240,40 L239,40 L238,40 L237,41 L236,41 L235,41 L234,42 L233,42 L232,42 L231,43 L230,43 L229,43 L228,44 L227,44 L226,45 L225,45 L224,45 L223,46 L222,46 L221,46 L220,47 L219,47 L218,48 L217,48 L216,49 L215,49 L214,50 L213,50 L212,51 L211,51 L210,52 L209,52 L208,53 L207,53 L206,54 L205,54 L204,55 L203,55 L202,56 L201,57 L200,57 L199,58 L198,58 L197,59 L196,60 L195,60 L194,61 L193,61 L192,62 L191,63 L190,63 L189,64 L188,65 L187,65 L186,66 L185,67 L184,68 L183,68 L182,69 L181,70 L180,71 L179,72 L178,72 L177,73 L176,74 L175,75 L174,76 L173,77 L172,78 L171,79 L170,79 L169,80 L168,81 L167,82 L166,83 L165,84 L164,85 L163,86 L162,87 L161,88 L161,89 L160,90 L159,91 L158,92 L157,93 L156,94 L155,95 L155,96 L154,97 L153,98 L152,99 L151,100 L151,101 L150,102 L149,103 L149,104 L148,105 L147,106 L146,107 L146,108 L145,109 L144,110 L144,111 L143,112 L142,113 L142,114 L141,115 L141,116 L140,117 L139,118 L139,119 L138,120 L138,121 L137,122 L137,123 L136,124 L136,125 L135,126 L135,127 L134,128 L134,129 L133,130 L133,131 L132,132 L132,133 L131,134 L131,135 L130,136 L130,137 L130,138 L129,139 L129,140 L128,141 L128,142 L128,143 L127,144 L127,145 L126,146 L126,147 L126,148 L125,149 L125,150 L125,151 L124,152 L124,153 L124,154 L124,155 L123,156 L123,157 L123,158 L122,159 L122,160 L122,161 L122,162 L121,163 L121,164 L121,165 L121,166 L120,167 L120,168 L120,169 L120,170 L120,171 L119,172 L119,173 L119,174 L119,175 L119,176 L118,177 L118,178 L118,179 L118,180 L118,181 L118,182 L117,183 L117,184 L117,185 L117,186 L117,187 L117,188 L117,189 L117,190 L117,191 L117,192 L116,193 L116,194 L116,195 L116,196 L116,197 L116,198 L116,199 L116,200 L116,201 L116,202 L116,203 L116,204 L116,205 L116,206 L116,207 L116,208 L116,209 L116,210 L116,211 L116,212 L116,213 L116,214 L116,215 L116,216 L116,217 L116,218 L117,219 L117,220 L117,221 L117,222 L117,223 L117,224 L117,225 L117,226 L117,227 L117,228 L118,229 L118,230 L118,231 L118,232 L118,233 L118,234 L118,235 L119,236 L119,237 L119,238 L119,239 L119,240 L120,241 L120,242 L120,243 L120,244 L121,245 L121,246 L121,247 L121,248 L122,249 L122,250 L122,251 L122,252 L123,253 L123,254 L123,255 L123,256 L124,257 L124,258 L124,259 L125,260 L125,261 L125,262 L126,263 L126,264 L126,265 L127,266 L127,267 L128,268 L128,269 L128,270 L129,271 L129,272 L130,273 L130,274 L130,275 L131,276 L131,277 L132,278 L132,279 L133,280 L133,281 L134,282 L134,283 L135,284 L135,285 L136,286 L136,287 L137,288 L137,289 L138,290 L138,291 L139,292 L139,293 L140,294 L141,295 L141,296 L142,297 L142,298 L143,299 L144,300 L144,301 L145,302 L146,303 L146,304 L147,305 L148,306 L148,307 L149,308 L150,309 L150,310 L151,311 L152,312 L153,313 L153,314 L154,315 L155,316 L156,317 L157,318 L158,319 L159,320 L159,321 L160,322 L161,323 L162,324 L163,325 L164,326 L165,327 L166,328 L167,329 L168,330 L169,331 L170,332 L171,332 L172,333 L173,334 L174,335 L175,336 L176,337 L177,338 L178,339 L179,339 L180,340 L181,341 L182,342 L183,342 L184,343 L185,344 L186,345 L187,345 L188,346 L189,347 L190,347 L191,348 L192,349 L193,349 L194,350 L195,351 L196,351 L197,352 L198,353 L199,353 L200,354 L201,354 L202,355 L203,355 L204,356 L205,356 L206,357 L207,357 L208,358 L209,358 L210,359 L211,359 L212,360 L213,360 L214,361 L215,361 L216,362 L217,362 L218,362 L219,363 L219,362 L220,361 L220,360 L221,359 L221,358 L222,357 L222,356 L222,355 L223,354 L223,353 L224,352 L223,351 L222,351 L221,350 L220,350 L219,349 L218,349 L217,348 L216,348 L215,347 L214,347 L213,346 L212,346 L211,345 L210,345 L209,344 L208,344 L207,343 L206,343 L205,342 L204,342 L203,341 L202,340 L201,340 L200,339 L199,338 L198,338 L197,337 L196,336 L195,336 L194,335 L193,334 L192,334 L191,333 L190,332 L189,331 L188,331 L187,330 L186,329 L185,328 L184,327 L183,326 L182,325 L181,325 L180,324 L179,323 L178,322 L177,321 L176,320 L175,319 L174,318 L173,317 L172,316 L171,315 L170,314 L169,313 L169,312 L168,311 L167,310 L166,309 L165,308 L164,307 L164,306 L163,305 L162,304 L161,303 L161,302 L160,301 L159,300 L158,299 L158,298 L157,297 L156,296 L156,295 L155,294 L154,293 L154,292 L153,291 L153,290 L152,289 L151,288 L151,287 L150,286 L150,285 L149,284 L149,283 L148,282 L147,281 L147,280 L146,279 L146,278 L145,277 L145,276 L144,275 L144,274 L144,273 L143,272 L143,271 L142,270 L142,269 L141,268 L141,267 L141,266 L140,265 L140,264 L139,263 L139,262 L139,261 L138,260 L138,259 L138,258 L137,257 L137,256 L137,255 L136,254 L136,253 L136,252 L135,251 L135,250 L135,249 L135,248 L134,247 L134,246 L134,245 L134,244 L133,243 L133,242 L133,241 L133,240 L133,239 L132,238 L132,237 L132,236 L132,235 L132,234 L131,233 L131,232 L131,231 L131,230 L131,229 L131,228 L131,227 L130,226 L130,225 L130,224 L130,223 L130,222 L130,221 L130,220 L130,219 L130,218 L130,217 L130,216 L130,215 L130,214 L130,213 L130,212 L129,211 L129,210 L129,209 L129,208 L129,207 L129,206 L129,205 L129,204 L129,203 L129,202 L129,201 L129,200 L129,199 L129,198 L130,197 L130,196 L130,195 L130,194 L130,193 L130,192 L130,191 L130,190 L130,189 L130,188 L130,187 L130,186 L130,185 L131,184 L131,183 L131,182 L131,181 L131,180 L131,179 L131,178 L132,177 L132,176 L132,175 L132,174 L132,173 L133,172 L133,171 L133,170 L133,169 L134,168 L134,167 L134,166 L134,165 L135,164 L135,163 L135,162 L136,161 L136,160 L136,159 L136,158 L137,157 L137,156 L137,155 L138,154 L138,153 L139,152 L140,152 L141,152 L142,152 L143,152 L144,152 L145,152 L146,152 L147,152 L148,152 L149,152 L150,152 L151,152 L152,152 L153,152 L154,152 L155,152 L156,152 L157,152 L158,152 L159,152 L160,152 L161,152 L162,152 L163,152 L164,152 L165,152 L166,152 L167,152 L168,152 L169,152 L170,152 L171,152 L172,152 L173,152 L174,152 L175,152 L176,152 L177,152 L178,152 L179,152 L180,152 L181,152 L182,152 L183,152 L184,152 L185,152 L186,152 L187,152 L188,152 L189,152 L190,152 L191,152 L192,152 L193,152 L194,152 L195,152 L196,152 L197,152 L198,152 L199,152 L200,152 L201,152 L202,152 L203,152 L204,152 L205,152 L206,152 L207,152 L208,152 L209,152 L210,152 L211,152 L212,152 L213,152 L214,152 L215,152 L216,152 L217,152 L218,152 L219,152 L220,152 L221,152 L222,152 L223,152 L224,152 L225,152 L226,152 L227,152 L228,152 L229,152 L230,152 L231,152 L232,152 L233,152 L234,152 L235,152 L236,152 L237,152 L238,152 L239,152 L240,152 L241,152 L242,152 L243,152 L244,152 L245,152 L246,152 L247,152 L248,152 L249,152 L250,152 L251,152 L252,152 L253,152 L254,152 L255,152 L256,152 L257,152 L258,152 L259,152 L260,152 L261,152 L262,152 L263,152 L264,153 L264,154 L264,155 L264,156 L264,157 L264,158 L264,159 L264,160 L264,161 L264,162 L264,163 L264,164 L264,165 L264,166 L264,167 L264,168 L264,169 L264,170 L264,171 L264,172 L264,173 L264,174 L264,175 L264,176 L264,177 L264,178 L264,179 L264,180 L264,181 L264,182 L264,183 L264,184 L264,185 L264,186 L264,187 L264,188 L264,189 L264,190 L264,191 L264,192 L264,193 L264,194 L264,195 L264,196 L264,197 L264,198 L264,199 L264,200 L264,201 L264,202 L264,203 L264,204 L264,205 L264,206 L264,207 L264,208 L264,209 L264,210 L264,211 L264,212 L264,213 L264,214 L264,215 L264,216 L264,217 L264,218 L264,219 L264,220 L264,221 L264,222 L264,223 L264,224 L264,225 L264,226 L264,227 L264,228 L264,229 L264,230 L264,231 L264,232 L264,233 L264,234 L264,235 L264,236 L264,237 L264,238 L264,239 L264,240 L264,241 L264,242 L264,243 L264,244 L264,245 L264,246 L264,247 L264,248 L264,249 L264,250 L264,251 L264,252 L264,253 L264,254 L264,255 L264,256 L264,257 L264,258 L264,259 L264,260 L264,261 L264,262 L264,263 L264,264 L264,265 L264,266 L264,267 L264,268 L264,269 L264,270 L264,271 L264,272 L264,273 L264,274 L264,275 L264,276 L264,277 L264,278 L264,279 L264,280 L264,281 L264,282 L264,283 L264,284 L264,285 L264,286 L264,287 L264,288 L264,289 L264,290 L264,291 L264,292 L264,293 L264,294 L264,295 L264,296 L264,297 L264,298 L264,299 L264,300 L264,301 L264,302 L264,303 L264,304 L264,305 L264,306 L264,307 L264,308 L264,309 L264,310 L264,311 L264,312 L264,313 L264,314 L264,315 L264,316 L264,317 L264,318 L264,319 L264,320 L264,321 L264,322 L264,323 L264,324 L264,325 L264,326 L264,327 L264,328 L264,329 L264,330 L264,331 L264,332 L264,333 L264,334 L264,335 L264,336 L264,337 L264,338 L264,339 L264,340 L264,341 L264,342 L264,343 L264,344 L264,345 L264,346 L264,347 L264,348 L264,349 L264,350 L264,351 L264,352 L264,353 L264,354 L264,355 L264,356 L264,357 L264,358 L264,359 L264,360 L264,361 L264,362 L264,363 L264,364 L264,365 L264,366 L264,367 L264,368 L264,369 L264,370 L264,371 L264,372 L264,373 L264,374 L265,374 L266,374 L267,374 L268,374 L269,374 L270,374 L271,374 L272,374 L273,374 L274,374 L275,374 L276,374 L277,374 L277,373 L277,372 L277,371 L277,370 L277,369 L277,368 L277,367 L277,366 L277,365 L277,364 L277,363 L277,362 L277,361 L277,360 L277,359 L277,358 L277,357 L277,356 L277,355 L277,354 L277,353 L277,352 L277,351 L277,350 L277,349 L277,348 L277,347 L277,346 L277,345 L277,344 L277,343 L277,342 L277,341 L277,340 L277,339 L277,338 L277,337 L277,336 L277,335 L277,334 L277,333 L277,332 L277,331 L277,330 L277,329 L277,328 L277,327 L277,326 L277,325 L277,324 L277,323 L277,322 L277,321 L277,320 L277,319 L277,318 L277,317 L277,316 L277,315 L277,314 L277,313 L277,312 L277,311 L277,310 L277,309 L277,308 L277,307 L277,306 L277,305 L277,304 L277,303 L277,302 L277,301 L277,300 L277,299 L277,298 L277,297 L277,296 L277,295 L277,294 L277,293 L277,292 L277,291 L277,290 L277,289 L277,288 L277,287 L277,286 L277,285 L277,284 L277,283 L277,282 L277,281 L277,280 L277,279 L277,278 L277,277 L277,276 L277,275 L277,274 L277,273 L277,272 L277,271 L277,270 L277,269 L277,268 L277,267 L277,266 L277,265 L277,264 L277,263 L277,262 L277,261 L277,260 L277,259 L277,258 L277,257 L277,256 L277,255 L277,254 L277,253 L277,252 L277,251 L277,250 L277,249 L277,248 L277,247 L277,246 L277,245 L277,244 L277,243 L277,242 L277,241 L277,240 L277,239 L277,238 L277,237 L277,236 L277,235 L277,234 L277,233 L277,232 L277,231 L277,230 L277,229 L277,228 L277,227 L277,226 L277,225 L277,224 L277,223 L277,222 L277,221 L277,220 L277,219 L277,218 L277,217 L277,216 L277,215 L277,214 L277,213 L277,212 L277,211 L277,210 L277,209 L277,208 L277,207 L277,206 L277,205 L277,204 L277,203 L277,202 L277,201 L277,200 L277,199 L277,198 L277,197 L277,196 L277,195 L277,194 L277,193 L277,192 L277,191 L277,190 L277,189 L277,188 L277,187 L277,186 L277,185 L277,184 L277,183 L277,182 L277,181 L277,180 L277,179 L277,178 L277,177 L277,176 L277,175 L277,174 L277,173 L277,172 L277,171 L277,170 L277,169 L277,168 L277,167 L277,166 L277,165 L277,164 L277,163 L277,162 L277,161 L277,160 L277,159 L277,158 L277,157 L277,156 L277,155 L277,154 L277,153 L277,152 L277,151 L277,150 L277,149 L277,148 L277,147 L277,146 L277,145 L277,144 L277,143 L277,142 L277,141 L277,140 L276,140 L275,140 L274,140 L273,140 L272,140 L271,140 L270,140 L269,140 L268,140 L267,140 L266,140 L265,140 L264,140 L263,140 L262,140 L261,140 L260,140 L259,140 L258,140 L257,140 L256,140 L255,140 L254,140 L253,140 L252,140 L251,140 L250,140 L249,140 L248,140 L247,140 L246,140 L245,140 L244,140 L243,140 L242,140 L241,140 L240,140 L239,140 L238,140 L237,140 L236,140 L235,140 L234,140 L233,140 L232,140 L231,140 L230,140 L229,140 L228,140 L227,140 L226,140 L225,140 L224,140 L223,140 L222,140 L221,140 L220,140 L219,140 L218,140 L217,140 L216,140 L215,140 L214,140 L213,140 L212,140 L211,140 L210,140 L209,140 L208,140 L207,140 L206,140 L205,140 L204,140 L203,140 L202,140 L201,140 L200,140 L199,140 L198,140 L197,140 L196,140 L195,140 L194,140 L193,140 L192,140 L191,140 L190,140 L189,140 L188,140 L187,140 L186,140 L185,140 L184,140 L183,140 L182,140 L181,140 L180,140 L179,140 L178,140 L177,140 L176,140 L175,140 L174,140 L173,140 L172,140 L171,140 L170,140 L169,140 L168,140 L167,140 L166,140 L165,140 L164,140 L163,140 L162,140 L161,140 L160,140 L159,140 L158,140 L157,140 L156,140 L155,140 L154,140 L153,140 L152,140 L151,140 L150,140 L149,140 L148,140 L147,140 L146,140 L145,140 L144,139 L144,138 L144,137 L145,136 L145,135 L146,134 L146,133 L147,132 L147,131 L148,130 L148,129 L149,128 L150,127 L150,126 L151,125 L151,124 L152,123 L152,122 L153,121 L154,120 L154,119 L155,118 L156,117 L156,116 L157,115 L158,114 L158,113 L159,112 L160,111 L160,110 L161,109 L162,108 L163,107 L164,106 L164,105 L165,104 L166,103 L167,102 L168,101 L168,100 L169,99 L170,98 L171,97 L172,96 L173,95 L174,94 L175,93 L176,92 L177,91 L178,90 L179,89 L180,88 L181,87 L182,86 L183,85 L184,84 L185,84 L186,83 L187,82 L188,81 L189,80 L190,80 L191,79 L192,78 L193,77 L194,77 L195,76 L196,75 L197,74 L198,74 L199,73 L200,72 L201,72 L202,71 L203,70 L204,70 L205,69 L206,68 L207,68 L208,67 L209,66 L210,66 L211,65 L212,65 L213,64 L214,64 L215,63 L216,63 L217,62 L218,62 L219,61 L220,61 L221,60 L222,60 L223,59 L224,59 L225,58 L226,58 L227,57 L228,57 L229,57 L230,56 L231,56 L232,55 L233,55 L234,55 L235,54 L236,54 L237,54 L238,53 L239,53 L240,53 L241,52 L242,52 L243,51 L244,51 L245,51 L246,51 L247,50 L248,50 L249,50 L250,50 L251,49 L252,49 L253,49 L254,49 L255,48 L256,48 L257,48 L258,48 L259,47 L260,47 L261,47 L262,47 L263,47 L264,47 L265,46 L266,46 L267,46 L268,46 L269,46 L270,46 L271,45 L272,45 L273,45 L274,45 L275,45 L276,45 L277,45 L278,45 L279,45 L280,45 L281,45 L282,45 L283,44 L284,44 L285,44 L286,44 L287,44 L288,44 L289,44 L290,44 L291,44 L292,44 L293,44 L294,45 L295,45 L296,45 L297,45 L298,45 L299,45 L300,45 L301,45 L302,45 L303,45 L304,45 L305,45 L306,45 L307,45 L308,45 L309,46 L310,46 L311,46 L312,46 L313,46 L314,46 L315,46 L316,47 L317,47 L318,47 L319,47 L320,47 L321,48 L322,48 L323,48 L324,48 L325,48 L326,49 L327,49 L328,49 L329,49 L330,50 L331,50 L332,50 L333,51 L334,51 L335,51 L336,51 L337,52 L338,52 L339,52 L340,53 L341,53 L342,53 L343,54 L344,54 L345,55 L346,55 L347,55 L348,56 L349,56 L350,56 L351,57 L352,57 L353,58 L354,58 L355,59 L356,59 L357,60 L358,60 L359,61 L360,61 L361,62 L362,62 L363,63 L364,63 L365,64 L366,64 L367,65 L368,65 L369,66 L370,66 L371,67 L372,68 L373,68 L374,69 L375,69 L376,70 L377,71 L378,72 L379,72 L380,73 L381,74 L382,74 L383,75 L384,76 L385,76 L386,77 L387,78 L388,79 L389,80 L390,80 L391,81 L392,82 L393,83 L394,84 L395,85 L396,86 L397,86 L398,87 L399,88 L399,89 L400,90 L401,90 L402,91 L403,92 L404,93 L405,94 L406,95 L407,96 L407,97 L408,98 L409,99 L410,100 L411,101 L412,102 L413,103 L413,104 L414,105 L415,106 L416,107 L417,108 L417,109 L418,110 L419,111 L420,112 L420,113 L421,114 L422,115 L422,116 L423,117 L424,118 L424,119 L425,120 L425,121 L426,122 L427,123 L427,124 L428,125 L428,126 L429,127 L429,128 L430,129 L431,130 L431,131 L432,132 L432,133 L433,134 L433,135 L433,136 L434,137 L434,138 L434,139 L433,140 L432,140 L431,140 L430,140 L429,140 L428,140 L427,140 L426,140 L425,140 L424,140 L423,140 L422,140 L421,140 L420,140 L419,140 L418,140 L417,140 L416,140 L415,140 L414,140 L413,140 L412,140 L411,140 L410,140 L409,140 L408,140 L407,140 L406,140 L405,140 L404,140 L403,140 L402,140 L401,140 L400,140 L399,140 L398,140 L397,140 L396,140 L395,140 L394,140 L393,140 L392,140 L391,140 L390,140 L389,140 L388,140 L387,140 L386,140 L385,140 L384,140 L383,140 L382,140 L381,140 L380,140 L379,140 L378,140 L377,140 L376,140 L375,140 L374,140 L373,140 L372,140 L371,140 L370,140 L369,140 L368,140 L367,140 L366,140 L365,140 L364,140 L363,140 L362,140 L361,140 L360,140 L359,140 L358,140 L357,140 L356,140 L355,140 L354,140 L353,140 L352,140 L351,140 L350,140 L349,140 L348,140 L347,140 L346,140 L345,140 L344,140 L343,140 L342,140 L341,140 L340,140 L339,140 L338,140 L337,140 L336,140 L335,140 L334,140 L333,140 L332,140 L331,140 L330,140 L329,140 L328,140 L327,140 L326,140 L325,140 L324,140 L323,140 L322,140 L321,140 L320,140 L319,140 L318,140 L317,140 L316,140 L315,140 L314,140 L313,140 L312,140 L311,140 L310,140 L309,140 L308,140 L307,140 L306,140 L305,140 L304,140 L303,140 L302,140 L301,140 L301,141 L301,142 L301,143 L301,144 L301,145 L301,146 L301,147 L301,148 L301,149 L301,150 L301,151 L301,152 L301,153 L301,154 L301,155 L301,156 L301,157 L301,158 L301,159 L301,160 L301,161 L301,162 L301,163 L301,164 L301,165 L301,166 L301,167 L301,168 L301,169 L301,170 L301,171 L301,172 L301,173 L301,174 L301,175 L301,176 L301,177 L301,178 L301,179 L301,180 L301,181 L301,182 L301,183 L301,184 L301,185 L301,186 L301,187 L301,188 L301,189 L301,190 L301,191 L301,192 L301,193 L301,194 L301,195 L301,196 L301,197 L301,198 L301,199 L301,200 L301,201 L301,202 L301,203 L301,204 L301,205 L301,206 L301,207 L301,208 L301,209 L301,210 L301,211 L301,212 L301,213 L301,214 L301,215 L301,216 L301,217 L301,218 L301,219 L301,220 L301,221 L301,222 L301,223 L301,224 L301,225 L301,226 L301,227 L301,228 L301,229 L301,230 L301,231 L301,232 L301,233 L301,234 L301,235 L301,236 L301,237 L301,238 L301,239 L301,240 L301,241 L301,242 L301,243 L301,244 L301,245 L301,246 L301,247 L301,248 L301,249 L301,250 L301,251 L301,252 L301,253 L301,254 L301,255 L301,256 L301,257 L301,258 L301,259 L301,260 L301,261 L301,262 L301,263 L301,264 L301,265 L301,266 L301,267 L301,268 L301,269 L301,270 L301,271 L301,272 L301,273 L301,274 L301,275 L301,276 L301,277 L301,278 L301,279 L301,280 L301,281 L301,282 L301,283 L301,284 L301,285 L301,286 L301,287 L301,288 L301,289 L301,290 L301,291 L301,292 L301,293 L301,294 L301,295 L301,296 L301,297 L301,298 L301,299 L301,300 L301,301 L301,302 L301,303 L301,304 L301,305 L301,306 L301,307 L301,308 L301,309 L301,310 L301,311 L301,312 L301,313 L301,314 L301,315 L301,316 L301,317 L301,318 L301,319 L301,320 L301,321 L301,322 L301,323 L301,324 L301,325 L301,326 L301,327 L301,328 L301,329 L301,330 L301,331 L301,332 L301,333 L301,334 L301,335 L301,336 L301,337 L301,338 L301,339 L301,340 L301,341 L301,342 L301,343 L301,344 L301,345 L301,346 L301,347 L301,348 L301,349 L301,350 L301,351 L301,352 L301,353 L301,354 L301,355 L301,356 L301,357 L301,358 L301,359 L301,360 L301,361 L301,362 L301,363 L301,364 L301,365 L301,366 L301,367 L301,368 L301,369 L301,370 L301,371 L301,372 L301,373 L301,374 L302,374 L303,374 L304,374 L305,374 L306,374 L307,374 L308,374 L309,374 L310,374 L311,374 L312,374 L313,374 L314,374 L314,373 L314,372 L314,371 L314,370 L314,369 L314,368 L314,367 L314,366 L314,365 L314,364 L314,363 L314,362 L314,361 L314,360 L314,359 L314,358 L314,357 L314,356 L314,355 L314,354 L314,353 L314,352 L314,351 L314,350 L314,349 L314,348 L314,347 L314,346 L314,345 L314,344 L314,343 L314,342 L314,341 L314,340 L314,339 L314,338 L314,337 L314,336 L314,335 L314,334 L314,333 L314,332 L314,331 L314,330 L314,329 L314,328 L314,327 L314,326 L314,325 L314,324 L314,323 L314,322 L314,321 L314,320 L314,319 L314,318 L314,317 L314,316 L314,315 L314,314 L314,313 L314,312 L314,311 L314,310 L314,309 L314,308 L314,307 L314,306 L314,305 L314,304 L314,303 L314,302 L314,301 L314,300 L314,299 L314,298 L314,297 L314,296 L314,295 L314,294 L314,293 L314,292 L314,291 L314,290 L314,289 L314,288 L314,287 L314,286 L314,285 L314,284 L314,283 L314,282 L314,281 L314,280 L314,279 L314,278 L314,277 L314,276 L314,275 L314,274 L314,273 L314,272 L314,271 L314,270 L314,269 L314,268 L314,267 L314,266 L314,265 L314,264 L314,263 L314,262 L314,261 L314,260 L314,259 L314,258 L314,257 L314,256 L314,255 L314,254 L314,253 L314,252 L314,251 L314,250 L314,249 L314,248 L314,247 L314,246 L314,245 L314,244 L314,243 L314,242 L314,241 L314,240 L314,239 L314,238 L314,237 L314,236 L314,235 L314,234 L314,233 L314,232 L314,231 L314,230 L314,229 L314,228 L314,227 L314,226 L314,225 L314,224 L314,223 L314,222 L314,221 L314,220 L314,219 L314,218 L314,217 L314,216 L314,215 L314,214 L314,213 L314,212 L314,211 L314,210 L314,209 L314,208 L314,207 L314,206 L314,205 L314,204 L314,203 L314,202 L314,201 L314,200 L314,199 L314,198 L314,197 L314,196 L314,195 L314,194 L314,193 L314,192 L314,191 L314,190 L314,189 L314,188 L314,187 L314,186 L314,185 L314,184 L314,183 L314,182 L314,181 L314,180 L314,179 L314,178 L314,177 L314,176 L314,175 L314,174 L314,173 L314,172 L314,171 L314,170 L314,169 L314,168 L314,167 L314,166 L314,165 L314,164 L314,163 L314,162 L314,161 L314,160 L314,159 L314,158 L314,157 L314,156 L314,155 L314,154 L314,153 L315,152 L316,152 L317,152 L318,152 L319,152 L320,152 L321,152 L322,152 L323,152 L324,152 L325,152 L326,152 L327,152 L328,152 L329,152 L330,152 L331,152 L332,152 L333,152 L334,152 L335,152 L336,152 L337,152 L338,152 L339,152 L340,152 L341,152 L342,152 L343,152 L344,152 L345,152 L346,152 L347,152 L348,152 L349,152 L350,152 L351,152 L352,152 L353,152 L354,152 L355,152 L356,152 L357,152 L358,152 L359,152 L360,152 L361,152 L362,152 L363,152 L364,152 L365,152 L366,152 L367,152 L368,152 L369,152 L370,152 L371,152 L372,152 L373,152 L374,152 L375,152 L376,152 L377,152 L378,152 L379,152 L380,152 L381,152 L382,152 L383,152 L384,152 L385,152 L386,152 L387,152 L388,152 L389,152 L390,152 L391,152 L392,152 L393,152 L394,152 L395,152 L396,152 L397,152 L398,152 L399,152 L400,152 L401,152 L402,152 L403,152 L404,152 L405,152 L406,152 L407,152 L408,152 L409,152 L410,152 L411,152 L412,152 L413,152 L414,152 L415,152 L416,152 L417,152 L418,152 L419,152 L420,152 L421,152 L422,152 L423,152 L424,152 L425,152 L426,152 L427,152 L428,152 L429,152 L430,152 L431,152 L432,152 L433,152 L434,152 L435,152 L436,152 L437,152 L438,152 L439,152 L440,153 L441,154 L441,155 L441,156 L442,157 L442,158 L442,159 L443,160 L443,161 L443,162 L443,163 L443,164 L444,165 L444,166 L444,167 L444,168 L445,169 L445,170 L445,171 L445,172 L446,173 L446,174 L446,175 L446,176 L446,177 L447,178 L447,179 L447,180 L447,181 L447,182 L447,183 L447,184 L448,185 L448,186 L448,187 L448,188 L448,189 L448,190 L448,191 L448,192 L448,193 L448,194 L448,195 L448,196 L448,197 L448,198 L449,199 L449,200 L449,201 L449,202 L449,203 L449,204 L449,205 L449,206 L449,207 L449,208 L448,209 L448,210 L448,211 L448,212 L448,213 L448,214 L448,215 L448,216 L448,217 L448,218 L448,219 L448,220 L448,221 L448,222 L447,223 L447,224 L447,225 L447,226 L447,227 L447,228 L447,229 L447,230 L446,231 L446,232 L446,233 L446,234 L446,235 L446,236 L445,237 L445,238 L445,239 L445,240 L444,241 L444,242 L444,243 L444,244 L443,245 L443,246 L443,247 L443,248 L442,249 L442,250 L442,251 L442,252 L441,253 L441,254 L441,255 L440,256 L440,257 L440,258 L439,259 L439,260 L438,261 L438,262 L438,263 L437,264 L437,265 L436,266 L436,267 L436,268 L435,269 L435,270 L434,271 L434,272 L433,273 L433,274 L432,275 L432,276 L431,277 L431,278 L430,279 L430,280 L429,281 L429,282 L428,283 L428,284 L427,285 L426,286 L426,287 L425,288 L425,289 L426,289 L427,290 L428,291 L429,291 L430,292 L431,293 L432,294 L433,294 L434,295 L435,296 L436,296 L436,295 L437,294 L437,293 L438,292 L439,291 L439,290 L440,289 L440,288 L441,287 L441,286 L442,285 L442,284 L443,283 L443,282 L444,281 L444,280 L445,279 L445,278 L446,277 L446,276 L447,275 L447,274 L447,273 L448,272 L448,271 L449,270 L449,269 L449,268 L450,267 L450,266 L450,265 L451,264 L451,263 L451,262 L452,261 L452,260 L453,259 L453,258 L453,257 L454,256 L454,255 L454,254 L455,253 L455,252 L455,251 L455,250 L456,249 L456,248 L456,247 L456,246 L457,245 L457,244 L457,243 L457,242 L458,241 L458,240 L458,239 L458,238 L459,237 L459,236 L459,235 L459,234 L459,233 L459,232 L460,231 L460,230 L460,229 L460,228 L460,227 L460,226 L460,225 L461,224 L461,223 L461,222 L461,221 L461,220 L461,219 L461,218 L461,217 L461,216 L461,215 L461,214 L461,213 L461,212 L461,211 L462,210 L462,209 L462,208 L462,207 L462,206 L462,205 L462,204 L462,203 L462,202 L462,201 L462,200 L462,199 L462,198 L461,197 L461,196 L461,195 L461,194 L461,193 L461,192 L461,191 L461,190 L461,189 L461,188 L461,187 L461,186 L461,185 L461,184 L460,183 L460,182 L460,181 L460,180 L460,179 L460,178 L460,177 L459,176 L459,175 L459,174 L459,173 L459,172 L458,171 L458,170 L458,169 L458,168 L458,167 L457,166 L457,165 L457,164 L457,163 L457,162 L456,161 L456,160 L456,159 L456,158 L455,157 L455,156 L455,155 L455,154 L454,153 L454,152 L453,151 L453,150 L453,149 L452,148 L452,147 L452,146 L451,145 L451,144 L451,143 L450,142 L450,141 L449,140 L449,139 L449,138 L448,137 L448,136 L448,135 L447,134 L447,133 L446,132 L446,131 L445,130 L445,129 L444,128 L444,127 L443,126 L443,125 L442,124 L442,123 L441,122 L440,121 L440,120 L439,119 L439,118 L438,117 L438,116 L437,115 L437,114 L436,113 L435,112 L435,111 L434,110 L433,109 L433,108 L432,107 L431,106 L431,105 L430,104 L429,103 L429,102 L428,101 L427,100 L427,99 L426,98 L425,97 L424,96 L423,95 L422,94 L421,93 L420,92 L419,91 L419,90 L418,89 L417,88 L416,87 L415,86 L414,85 L413,84 L412,83 L411,82 L410,81 L409,80 L408,79 L407,78 L406,77 L405,76 L404,76 L403,75 L402,74 L401,73 L400,72 L399,71 L398,71 L397,70 L396,69 L395,68 L394,68 L393,67 L392,66 L391,65 L390,65 L389,64 L388,63 L387,62 L386,62 L385,61 L384,60 L383,60 L382,59 L381,59 L380,58 L379,57 L378,57 L377,56 L376,56 L375,55 L374,55 L373,54 L372,54 L371,53 L370,53 L369,52 L368,51 L367,51 L366,50 L365,50 L364,50 L363,49 L362,49 L361,48 L360,48 L359,47 L358,47 L357,46 L356,46 L355,45 L354,45 L353,45 L352,44 L351,44 L350,43 L349,43 L348,43 L347,42 L346,42 L345,42 L344,41 L343,41 L342,41 L341,40 L340,40 L339,40 L338,40 L337,39 L336,39 L335,39 L334,38 L333,38 L332,38 L331,38 L330,37 L329,37 L328,37 L327,37 L326,36 L325,36 L324,36 L323,36 L322,36 L321,35 L320,35 L319,35 L318,35 L317,35 L316,35 L315,34 L314,34 L313,34 L312,34 L311,34 L310,34 L309,34 L308,33 L307,33 L306,33 L305,33 L304,33 L303,33 L302,33 L301,33 L300,33 L299,33 L298,33 L297,33 L296,33 L295,32 L294,32 L293,32 L292,32 L291,32 L290,32 L289,32 L288,32 Z" fill="#FFFFFF"/>
<path d="M 372,284 L371,285 L370,286 L369,287 L368,288 L367,289 L366,290 L365,291 L364,292 L364,293 L365,294 L366,295 L367,296 L368,297 L369,298 L370,299 L371,300 L372,301 L373,302 L374,303 L375,304 L376,305 L377,306 L378,307 L379,308 L380,309 L381,310 L382,311 L382,312 L383,313 L384,314 L385,315 L386,316 L387,317 L388,318 L389,319 L390,320 L391,321 L392,322 L393,323 L393,324 L393,325 L392,326 L391,327 L390,327 L389,328 L388,329 L387,330 L386,331 L385,332 L384,332 L383,333 L382,334 L381,335 L380,335 L379,336 L378,337 L377,337 L376,338 L375,339 L374,340 L373,340 L372,341 L371,341 L370,342 L369,343 L368,343 L367,344 L366,344 L365,345 L364,345 L363,346 L362,346 L361,347 L360,347 L359,348 L358,348 L357,349 L356,350 L355,350 L354,350 L353,351 L352,351 L351,352 L350,352 L349,352 L348,353 L347,354 L347,355 L347,356 L347,357 L347,358 L347,359 L347,360 L347,361 L347,362 L347,363 L347,364 L347,365 L347,366 L348,367 L349,367 L350,366 L351,366 L352,366 L353,365 L354,365 L355,364 L356,364 L357,363 L358,363 L359,363 L360,362 L361,362 L362,361 L363,361 L364,360 L365,360 L366,359 L367,359 L368,358 L369,358 L370,357 L371,357 L372,356 L373,356 L374,355 L375,354 L376,354 L377,353 L378,353 L379,352 L380,351 L381,351 L382,350 L383,349 L384,349 L385,348 L386,348 L387,347 L388,346 L389,346 L390,345 L391,344 L392,343 L393,342 L394,342 L395,341 L396,340 L397,339 L398,338 L399,337 L400,336 L401,335 L402,335 L403,334 L404,335 L405,336 L406,337 L407,338 L408,339 L409,340 L410,341 L411,342 L412,343 L413,344 L414,345 L415,346 L416,347 L417,348 L418,349 L419,350 L420,351 L421,352 L422,353 L423,354 L424,355 L425,356 L426,357 L427,358 L428,359 L429,360 L430,361 L431,362 L432,363 L433,364 L434,365 L435,366 L436,367 L437,368 L438,369 L439,370 L440,370 L441,370 L441,369 L442,368 L443,367 L444,366 L445,366 L446,365 L447,364 L448,363 L448,362 L448,361 L447,360 L446,359 L445,358 L444,357 L443,356 L442,355 L441,354 L440,353 L439,352 L438,351 L437,350 L436,349 L435,348 L434,347 L433,346 L432,345 L431,344 L430,343 L429,342 L428,341 L427,340 L426,339 L425,338 L424,337 L423,336 L422,335 L421,334 L421,333 L420,332 L419,331 L418,331 L417,330 L416,329 L416,328 L415,327 L414,326 L413,325 L414,324 L415,323 L416,322 L416,321 L417,320 L418,319 L419,318 L420,317 L421,316 L422,315 L423,314 L424,313 L424,312 L425,311 L426,310 L427,309 L428,308 L428,307 L429,306 L430,305 L431,304 L431,303 L432,302 L433,301 L433,300 L434,299 L435,298 L434,297 L434,296 L433,296 L432,295 L431,295 L430,294 L429,293 L428,292 L427,292 L426,291 L425,290 L424,290 L423,290 L422,291 L422,292 L421,293 L420,294 L420,295 L419,296 L418,297 L418,298 L417,299 L416,300 L415,301 L415,302 L414,303 L413,304 L412,305 L411,306 L411,307 L410,308 L409,309 L408,310 L407,311 L406,312 L405,313 L404,314 L403,314 L402,314 L401,313 L400,312 L399,311 L398,310 L397,309 L396,308 L395,307 L394,306 L393,305 L392,304 L391,303 L390,302 L389,301 L388,300 L387,299 L386,298 L385,297 L384,296 L383,295 L382,294 L382,293 L381,293 L380,292 L380,291 L379,290 L378,289 L377,288 L376,287 L375,286 L374,285 L373,284 Z" fill="#004FFF"/>
</g>
</svg>
